<svg width="120" height="90" viewBox="0 0 120 90" fill="none" xmlns="http://www.w3.org/2000/svg">
<path d="M0.105521 0.959469C0.666825 2.46765 6.11147 21.4359 6.44825 23.0601C6.7289 24.2782 6.95343 24.3362 11.0509 24.0462C14.8117 23.8142 16.2711 24.0462 23.119 25.9604C31.2579 28.2807 32.7734 29.2088 31.5385 31.2391C30.6404 32.6892 28.6759 32.7472 23.9609 31.4131C18.7969 29.9049 17.8427 29.9049 17.8427 31.2971C17.8427 32.5152 18.1795 32.6312 25.9816 34.7775C49.8932 41.2742 51.0719 41.7963 48.8267 44.6966L47.7602 46.0308L38.218 43.3625C28.0023 40.4621 27.1042 40.2881 26.4868 41.2742C25.7571 42.4924 27.7217 43.3625 36.927 45.8568C42.0349 47.1909 46.5253 48.5831 46.9182 48.8731C47.9286 49.8012 47.7041 52.1215 46.5253 52.7596C45.7395 53.2237 43.2136 52.7596 36.3096 50.7874C26.4307 48.003 25.4203 47.829 24.8029 48.8731C24.1293 49.9753 25.8694 50.7294 35.5238 53.3977C43.382 55.6019 45.0098 56.24 45.515 57.2841C46.7499 60.1265 43.9995 61.0546 38.8355 59.5464C32.7173 57.6902 25.0835 55.7179 24.0171 55.7179C23.2874 55.7179 22.8944 56.124 22.8944 56.8781C22.8944 58.0382 22.7822 57.9802 30.7527 60.0685C32.7734 60.5905 34.8502 61.4606 35.4115 61.9247C36.7025 63.1428 36.6464 64.825 35.2431 65.5791C34.1205 66.2172 31.3701 65.5791 18.1795 61.7507C16.664 61.2866 15.3169 61.0546 15.1485 61.1706C15.0362 61.3446 15.0923 63.0268 15.3169 64.941L15.7098 68.4214L19.4144 69.6976C31.4824 73.7581 45.1782 80.7189 54.6081 87.5637L57.9759 90L58.1443 53.2817L58.2566 16.5633L57.0217 15.5772C54.1591 13.2569 42.1472 7.39823 35.9728 5.25198C26.4868 2.00359 19.0776 0.611428 8.63734 0.20538C-0.00673965 -0.142661 -0.287391 -0.142661 0.105521 0.959469Z" fill="#ff9f1c"/>
<path d="M103.442 0.611434C93.0575 1.77157 80.8211 5.65803 70.7176 11.0527C67.1253 12.9669 63.5891 14.9971 62.8594 15.5772L61.6245 16.5633L61.7368 53.2817L61.9052 90L65.1046 87.6797C74.8151 80.6609 87.5567 74.1061 99.2319 70.2197L104.003 68.5955L104.508 65.0571C104.789 63.0848 104.901 61.4026 104.789 61.2286C104.62 61.1126 100.354 62.1567 95.3027 63.6069C88.118 65.5791 85.7606 66.0432 84.8064 65.5791C83.2908 64.883 83.1224 63.2008 84.5257 61.9827C85.2554 61.2866 95.3589 58.0382 96.7621 58.0382C96.8744 58.0382 96.9866 57.5162 96.9866 56.8781C96.9866 55.3119 96.3692 55.3699 86.4341 58.0382C81.7192 59.3144 77.2849 60.3585 76.5552 60.3585C74.6468 60.3585 73.6364 58.9083 74.3661 57.2841C74.8151 56.24 76.1061 55.6599 80.4843 54.4418C95.5273 50.3233 95.864 50.1493 95.0782 48.8151C94.4608 47.829 93.3943 48.003 83.5715 50.7874C76.6674 52.7596 74.1416 53.2237 73.3558 52.7596C72.177 52.1215 71.9525 49.8012 73.019 48.8731C73.3558 48.5831 77.8462 47.1909 82.9541 45.8568C92.1594 43.3625 94.124 42.4924 93.3943 41.2742C92.7769 40.2881 92.0472 40.4621 81.7192 43.3045L72.0648 45.9728L71.0544 44.6966C70.1563 43.5365 70.1002 43.1885 70.7738 42.2024C71.4473 41.1002 75.2642 39.8821 93.8995 34.7775C101.309 32.7472 102.038 32.4572 102.038 31.5871C102.038 30.0789 100.411 30.0209 96.1447 31.2971C91.4859 32.7472 89.2407 32.6892 88.3426 31.2391C87.1077 29.2088 88.6232 28.2807 96.7621 25.9604C103.666 23.9882 105.069 23.8142 108.942 24.0462C112.03 24.2782 113.264 24.1622 113.264 23.6982C113.264 22.9441 114.948 17.1434 118.092 6.87617C119.158 3.45377 120 0.49542 120 0.3214C120 -0.0846483 108.044 0.0893723 103.442 0.611434Z" fill="#ff9f1c"/>
</svg>
